<svg version="1.1" xmlns="http://www.w3.org/2000/svg" xmlns:xlink="http://www.w3.org/1999/xlink" width="132.33334" height="132.33332" viewBox="0,0,132.33334,132.33332"><g transform="translate(-173.83333,-113.83334)"><g data-paper-data="{&quot;isPaintingLayer&quot;:true}" fill-rule="nonzero" stroke-linejoin="miter" stroke-miterlimit="10" stroke-dasharray="" stroke-dashoffset="0" style="mix-blend-mode: normal"><path d="M174.83333,180c0,-35.99055 29.17611,-65.16666 65.16667,-65.16666c35.99055,0 65.16667,29.17611 65.16667,65.16666c0,35.99056 -29.17611,65.16666 -65.16667,65.16666c-35.99055,0 -65.16667,-29.17611 -65.16667,-65.16666z" fill="#f4768b" stroke="#f4768b" stroke-width="2" stroke-linecap="butt"/><g><path d="M277.03783,175.67198c0,9.89686 -4.55623,21.06089 -13.39726,28.40851c-8.27236,6.87501 -20.99823,11.43474 -30.19595,11.43474c-19.0277,0 -29.76526,-14.99981 -29.76526,-14.99981l61.40549,-56.95241c0,0 11.95298,12.95184 11.95298,32.10898z" fill="#fbfdd8" stroke="#fbfdd8" stroke-width="3" stroke-linecap="butt"/><path d="M202.50751,200.74979c0,0 27.5901,35.94641 61.93449,3.58381c28.84285,-27.17851 0.87722,-62.17683 0.87722,-62.17683" fill="none" stroke="#f4d800" stroke-width="3" stroke-linecap="round"/><path d="M258.6429,192.55334c5.52683,4.19245 2.51008,8.914 -4.55723,14.18696c-3.99421,2.9801 -11.96035,5.98052 -12.32413,1.63676c-1.59281,-26.22746 -7.58744,-33.40056 -5.48728,-34.54385c3.06237,-1.6671 10.63746,9.48898 22.36864,18.72013z" fill="#fce944" stroke="none" stroke-width="0" stroke-linecap="butt"/><path d="M239.31652,203.56191c0.66097,7.464 0.58268,11.83372 -12.12669,9.307c-9.71535,-1.93149 -11.30436,-5.49258 -9.36805,-9.39787c13.69707,-18.73411 12.48613,-28.86029 14.87485,-28.75194c2.38872,0.10835 5.2883,13.80561 6.61989,28.84281z" fill="#fce944" stroke="none" stroke-width="0" stroke-linecap="butt"/><path d="M266.52492,170.92969c8.99445,0.22464 7.93914,5.92077 5.66061,15.05695c-1.86408,7.47438 -7.08119,11.22991 -9.66728,8.50532c-17.71807,-19.40327 -25.56014,-20.77663 -25.96091,-23.13399c-0.55769,-3.28039 14.90681,-1.38697 29.96758,-0.42827z" fill="#fce944" stroke="none" stroke-width="0" stroke-linecap="butt"/><path d="M257.2978,148.64185c4.88833,-4.39328 7.35286,-1.82051 9.63817,2.29211c1.88503,3.39227 4.8798,14.26311 5.05311,16.50049c0.21795,2.8137 -5.32725,1.66817 -6.90099,1.47141c-7.94512,-0.99333 -13.37302,-1.02247 -17.26029,-1.17545c-6.14595,-0.24186 -8.65937,0.39205 -9.99328,-0.68018c-0.62852,-0.50522 7.83516,-8.78899 19.46329,-18.40838z" fill="#fce944" stroke="none" stroke-width="0" stroke-linecap="butt"/><path d="M209.17025,202.24248c1.04517,0.7267 2.73553,2.25101 4.62511,1.05117c2.27205,-1.4427 4.83211,-5.94164 6.90487,-8.77964c4.23518,-5.79877 10.44354,-19.1451 8.191,-18.54962c-2.61438,0.69114 -10.96208,8.89795 -13.61328,11.37426c-2.50275,2.33764 -10.26823,9.82949 -10.1055,10.3116c0.77685,2.30142 3.03382,3.92197 3.9978,4.59223z" fill="#fce944" stroke="none" stroke-width="0" stroke-linecap="butt"/></g></g></g></svg>