<svg version="1.1" xmlns="http://www.w3.org/2000/svg" xmlns:xlink="http://www.w3.org/1999/xlink" width="132.33334" height="132.33332" viewBox="0,0,132.33334,132.33332"><g transform="translate(-173.83333,-113.83334)"><g data-paper-data="{&quot;isPaintingLayer&quot;:true}" fill-rule="nonzero" stroke-linecap="butt" stroke-linejoin="miter" stroke-miterlimit="10" stroke-dasharray="" stroke-dashoffset="0" style="mix-blend-mode: normal"><path d="M174.83333,180c0,-35.99055 29.17611,-65.16666 65.16667,-65.16666c35.99055,0 65.16667,29.17611 65.16667,65.16666c0,35.99056 -29.17611,65.16666 -65.16667,65.16666c-35.99055,0 -65.16667,-29.17611 -65.16667,-65.16666z" fill="#fae37c" stroke="#fae37c" stroke-width="2"/><path d="M278.15781,156.94966c6.34816,8.43339 10.04052,26.54387 4.30628,41.55264c-0.71816,1.87972 -1.45295,3.50471 -1.98239,5.55957c-0.65064,2.52524 -1.13627,3.94797 -1.06384,5.51932c0.17452,3.7864 -0.76442,6.34946 -1.7683,8.89525c-1.3012,3.2998 -6.72009,8.38867 -12.2618,9.65012c-4.92651,1.12142 -13.7921,-0.38419 -16.19024,-0.74358c-5.69852,-0.85398 -10.38314,-0.54679 -13.11617,-0.73904c-12.91391,-0.9084 -23.04571,-5.57358 -31.62525,-16.6418c-7.17212,-9.25256 -10.53875,-23.32311 -9.61853,-34.73314c0.40373,-5.00601 3.41376,-10.48147 3.58539,-14.38695c0.19245,-4.37922 0.25306,-9.2073 0.81955,-11.41647c0.48254,-1.88181 4.08504,-7.76067 9.60632,-11.68659c6.06283,-4.31099 11.32788,-6.59548 14.97206,-6.28609c3.22153,0.2735 7.12081,2.96963 10.84019,3.83544c3.71938,0.8658 14.44167,1.34312 25.26572,5.71928c7.91962,3.2019 14.51867,10.97024 18.23102,15.90202z" fill="#86c10f" stroke="none" stroke-width="0"/><path d="M255.53333,151.36389c3.92357,2.49651 4.26636,13.46742 -10.76389,11.41667c-7.67235,-1.04683 -14.74556,-7.03566 -13.09722,-9.75c2.33334,-3.84231 8.85254,-4.41667 12.09722,-4.41667c3.24468,0 9.30015,1.18236 11.76389,2.75z" fill="#bfe35f" stroke="none" stroke-width="0"/><path d="M223.30119,142.74484c0.78572,1.13574 -1.86704,3.18428 -3.29365,3.65873c-1.50344,0.5 -2.56812,0.48765 -3.15079,-0.73016c-0.71428,-1.49289 0.64735,-2.94444 2.07937,-3.80158c1.29001,-0.77214 3.597,-0.23723 4.36507,0.87302z" fill="#bfe35f" stroke="none" stroke-width="0"/><path d="M257.7,227.2c-1.31081,-0.01695 -3.29057,-0.93165 -5.3773,-1.29188c-2.6044,-0.44959 -5.31968,-0.37009 -6.46447,-0.47114c-1.88169,-0.16608 -6.6048,-0.06002 -9.60823,-0.36199c-5.27002,-0.52984 -9.16415,-1.68232 -12.57003,-2.90826c-5.10913,-1.83902 -8.09309,-4.21291 -10.33723,-5.96378c-2.30627,-1.79934 -8.36348,-7.42222 -10.04274,-13.20296c-0.95976,-3.30388 3.46555,6.15114 15.13859,11.69633c2.02845,0.9636 5.80933,2.14663 8.53621,2.73963c4.45651,0.96913 9.42855,0.99461 11.5752,1.38904c5.44237,1 9.03292,2.30598 14.00475,4.5162c3.12705,1.39013 6.54572,3.87691 5.14525,3.8588z" fill="#729e13" stroke="none" stroke-width="0"/><path d="M205.94999,150.36137c1.51879,0 3.79627,0.53818 2.29546,1.52272c-2.18182,1.43129 -5.50394,4.61364 -7.02273,6.61364c-0.91852,1.20955 -0.65052,-4.55712 0.15909,-6.15909c1.09091,-2.15856 3.04939,-1.97727 4.56818,-1.97727z" fill="#729e13" stroke="none" stroke-width="0"/></g></g></svg>