<svg version="1.1" xmlns="http://www.w3.org/2000/svg" xmlns:xlink="http://www.w3.org/1999/xlink" width="132.33334" height="132.33332" viewBox="0,0,132.33334,132.33332"><defs><radialGradient cx="239.875" cy="179.62501" r="53.21455" gradientUnits="userSpaceOnUse" id="color-1"><stop offset="0" stop-color="#faffd6"/><stop offset="1" stop-color="#fce7a6"/></radialGradient></defs><g transform="translate(-173.83334,-114.43335)"><g data-paper-data="{&quot;isPaintingLayer&quot;:true}" fill-rule="nonzero" stroke-linejoin="miter" stroke-miterlimit="10" stroke-dasharray="" stroke-dashoffset="0" style="mix-blend-mode: normal"><path d="M174.83334,180.60001c0,-35.99055 29.17611,-65.16666 65.16667,-65.16666c35.99055,0 65.16667,29.17611 65.16667,65.16666c0,35.99056 -29.17611,65.16666 -65.16667,65.16666c-35.99055,0 -65.16667,-29.17611 -65.16667,-65.16666z" fill="#74a9cb" stroke="#74a9cb" stroke-width="2" stroke-linecap="butt"/><path d="M208.56667,147.99167l2.83334,7.5" fill="none" stroke="none" stroke-width="0" stroke-linecap="round"/><path d="M293.08955,179.62501c0,29.26513 -23.82496,52.98919 -53.21455,52.98919c-29.38959,0 -53.21455,-23.72406 -53.21455,-52.98919c0,-29.26513 23.82496,-52.9892 53.21455,-52.9892c29.38959,0 53.21455,23.72407 53.21455,52.9892z" fill="url(#color-1)" stroke="#f78613" stroke-width="3" stroke-linecap="butt"/><path d="M212.81793,147.24481c1.42684,2.82973 7.93521,8.98229 11.20761,12.72663c6.20391,7.09861 10.97104,13.62705 12.69917,13.0666c2.24455,-0.72793 2.04653,-4.38062 1.63902,-12.17421c-0.46067,-8.81015 0.08283,-20.87935 -0.34341,-22.97648c-0.68902,-3.38998 -5.99492,-3.2606 -12.78178,-0.91823c-6.78686,2.34237 -13.64508,6.84728 -12.42061,10.27569z" fill="#f8a322" stroke="none" stroke-width="0" stroke-linecap="butt"/><path d="M256.30551,223.99594c-6.78686,2.34237 -13.84277,3.59675 -14.53178,0.20677c-0.42624,-2.09713 -0.00774,-16.41633 -0.46841,-25.22648c-0.40751,-7.79359 -0.60554,-11.44628 1.63902,-12.17421c1.72813,-0.56045 6.49526,5.96798 12.69917,13.06659c3.2724,3.74434 10.65578,11.0219 12.08261,13.85164c1.22447,3.42841 -4.63374,7.93332 -11.4206,10.27569z" data-paper-data="{&quot;index&quot;:null}" fill="#f8a322" stroke="none" stroke-width="0" stroke-linecap="butt"/><path d="M281.98455,201.36799c-3.07864,6.48615 -6.95074,12.86555 -9.8538,10.98434c-1.79591,-1.16376 -5.03376,-5.50112 -15.02237,-15.83987c-8.2098,-8.49758 -11.72244,-12.08077 -10.6709,-14.19315c0.80961,-1.62637 9.30872,-0.46012 19.09583,-0.54568c9.78711,-0.08555 15.16435,-0.80572 18.18388,0.15642c3.30536,1.52575 1.346,12.95179 -1.73264,19.43794z" data-paper-data="{&quot;index&quot;:null}" fill="#f8a322" stroke="none" stroke-width="0" stroke-linecap="butt"/><path d="M198.95544,161.62838c3.07863,-6.48615 8.70073,-13.36555 11.60379,-11.48435c1.79591,1.16376 2.53376,2.62612 12.52238,12.96487c8.2098,8.49759 11.72243,12.08077 10.6709,14.19315c-0.80961,1.62637 -9.05872,0.96012 -18.84583,1.04568c-9.78711,0.08555 -14.53934,0.68072 -17.55887,-0.28142c-3.30536,-1.52575 -1.47099,-9.95179 1.60764,-16.43794z" data-paper-data="{&quot;index&quot;:null}" fill="#f8a322" stroke="none" stroke-width="0" stroke-linecap="butt"/><path d="M198.99982,200.21007c-2.59526,-6.69423 -6.35298,-17.75622 -2.99123,-18.57189c2.07967,-0.50459 5.649,0.08957 20.02398,-0.05971c12.69002,0.25231 16.12544,-1.29597 17.64359,1.37935c1.36186,2.39991 -4.40384,5.98977 -12.19356,15.0325c-6.38793,7.41547 -10.62372,12.65362 -13.39794,14.18558c-2.13008,0.60219 -6.48958,-5.27159 -9.08484,-11.96582z" data-paper-data="{&quot;index&quot;:null}" fill="#f8a322" stroke="none" stroke-width="0" stroke-linecap="butt"/><path d="M281.17852,159.49184c2.59526,6.69423 6.35297,17.75622 2.99122,18.57189c-2.07966,0.50459 -5.649,-0.08957 -20.02398,0.05971c-12.69002,-0.25231 -16.12544,1.29597 -17.64359,-1.37935c-1.36186,-2.39991 4.40384,-5.98977 12.19356,-15.0325c6.38794,-7.41547 10.62372,-12.65362 13.39794,-14.18558c2.13007,-0.60219 6.48958,5.27159 9.08484,11.96582z" data-paper-data="{&quot;index&quot;:null}" fill="#f8a322" stroke="none" stroke-width="0" stroke-linecap="butt"/><path d="M242.29419,137.22903c-0.85943,3.05035 -0.2166,11.98341 -0.33303,16.95485c-0.22073,9.42497 -1.11571,17.45896 0.53712,18.21308c2.14675,0.97948 4.46817,-1.8476 9.43234,-7.86949c5.61167,-6.80736 14.16529,-15.33945 15.26763,-17.17369c1.78192,-2.96504 -2.21779,-6.45383 -8.80437,-9.31128c-6.58659,-2.85745 -14.68662,-4.16854 -16.09968,-0.81346z" fill="#f8a322" stroke="none" stroke-width="0" stroke-linecap="butt"/><path d="M222.49981,223.53459c-6.58659,-2.85745 -12.2113,-7.09624 -10.42937,-10.06128c1.10234,-1.83425 9.65596,-11.11634 15.26763,-17.9237c4.96417,-6.02189 8.41059,-8.84897 10.55733,-7.86949c1.65283,0.75412 0.75785,8.78811 0.53712,18.21308c-0.11643,4.97144 0.6514,15.65449 -0.20804,18.70485c-1.41306,3.35509 -9.13809,1.79399 -15.72467,-1.06346z" data-paper-data="{&quot;index&quot;:null}" fill="#f8a322" stroke="none" stroke-width="0" stroke-linecap="butt"/><path d="M188.35714,179.85714c0,-28.44266 23.05734,-51.5 51.5,-51.5c28.44266,0 51.5,23.05734 51.5,51.5c0,28.44266 -23.05734,51.5 -51.5,51.5c-28.44266,0 -51.5,-23.05734 -51.5,-51.5z" fill="none" stroke="#f7d214" stroke-width="3" stroke-linecap="butt"/><ellipse cx="512.68162" cy="384.72857" transform="scale(0.5,0.5)" rx="0" ry="0" fill="none" stroke="#f7e914" stroke-width="3" stroke-linecap="butt"/></g></g></svg>