<svg xmlns="http://www.w3.org/2000/svg" viewBox="113.467 19.8892 251.8 321.3">
	<path d="M231.8621,80.80074c-0.04364,4.71263 0.70302,15.91458 2.42634,24.56293c1.12291,5.63523 -0.67719,11.04608 -5.42451,11.44962c-9.38414,0.7977 -11.20122,-7.0599 -12.57549,-14.27963c-0.6137,-3.22407 -1.66137,-10.39729 -1.95238,-19.17311c-0.34226,-10.32129 0.88014,-21.70026 1.76743,-27.61539c1.0899,-7.26582 4.45863,-16.98871 14.47067,-14.78294c7.40735,1.63193 5.27483,10.0448 4.663,12.45486c-1.28598,5.06564 -3.23221,11.95653 -3.37507,27.38364z" fill="#4cab41"/>
	<path xmlns="http://www.w3.org/2000/svg" d="M113.46666,225.73333c0,-63.78889 51.71111,-115.5 115.5,-115.5c63.78889,0 115.5,51.71111 115.5,115.5c0,63.78889 -51.71111,115.5 -115.5,115.5c-63.78889,0 -115.5,-51.71111 -115.5,-115.5z" fill="#f8a200" stroke-width="0"/>
	<path xmlns="http://www.w3.org/2000/svg" d="M115.26667,140.29596c0,-25.86533 20.968,-46.83333 46.83333,-46.83333c25.86533,0 46.83334,20.96799 46.83334,46.83333c0,25.86534 -20.968,46.83334 -46.83334,46.83334c-25.86533,0 -46.83333,-20.968 -46.83333,-46.83334z" fill="#f8a200" stroke-width="0"/>
	<path xmlns="http://www.w3.org/2000/svg" d="M294.43334,186.46263c-25.86534,0 -46.83334,-20.968 -46.83334,-46.83334c0,-25.86533 20.968,-46.83333 46.83334,-46.83333c25.86534,0 46.83333,20.968 46.83333,46.83333c0,25.86533 -20.96799,46.83334 -46.83333,46.83334z" data-paper-data="{&quot;index&quot;:null}" fill="#f8a200" stroke-width="0"/>
	<path xmlns="http://www.w3.org/2000/svg" d="M224.37375,86.17012c1.41954,3.46873 50.30056,15.14714 84.99988,0.30718c34.69932,-14.83996 56.58213,-55.88473 55.82411,-58.04742c-1.14146,-3.25667 -47.46723,-16.48047 -82.16655,-1.64051c-34.69932,14.83996 -59.97601,56.15877 -58.65745,59.38075z" fill="#4cab41" stroke-width="0"/>
</svg>