<svg version="1.1" xmlns="http://www.w3.org/2000/svg" xmlns:xlink="http://www.w3.org/1999/xlink" width="132.33334" height="132.33332" viewBox="0,0,132.33334,132.33332"><g transform="translate(-173.83334,-114.43334)"><g data-paper-data="{&quot;isPaintingLayer&quot;:true}" fill-rule="nonzero" stroke-linecap="butt" stroke-linejoin="miter" stroke-miterlimit="10" stroke-dasharray="" stroke-dashoffset="0" style="mix-blend-mode: normal"><path d="M174.83334,180.60001c0,-35.99055 29.17611,-65.16666 65.16667,-65.16666c35.99055,0 65.16667,29.17611 65.16667,65.16666c0,35.99056 -29.17611,65.16666 -65.16667,65.16666c-35.99055,0 -65.16667,-29.17611 -65.16667,-65.16666z" fill="#d8d8d8" stroke="#dadada" stroke-width="2"/><g fill="#ffffff"><path d="M215.16668,161.35672c0,-13.71507 11.11827,-24.83334 24.83334,-24.83334c13.71507,0 24.83333,11.11827 24.83333,24.83334c0,13.71507 -11.11826,24.83333 -24.83333,24.83333c-13.71507,0 -24.83334,-11.11826 -24.83334,-24.83333z" stroke="#ffffff" stroke-width="0.5"/><g stroke="none" stroke-width="0"><path d="M240.79709,193.3529c1.0166,0.03258 0.85,29.725 0.85,29.725c0,0 -35.30501,0.80687 -37.85,0.125c-0.77224,-0.20691 -12.40174,-4.66865 -4.05,-18.625c4.70824,-7.86781 19.796,-11.906 41.05,-11.225z"/><path d="M280.25293,204.5779c8.35173,13.95635 -3.27776,18.41809 -4.05,18.625c-2.54498,0.68187 -37.85,-0.125 -37.85,-0.125c0,0 -0.1666,-29.69242 0.85,-29.725c21.254,-0.681 36.34176,3.35719 41.05,11.225z" data-paper-data="{&quot;index&quot;:null}"/></g></g></g></g></svg>